# xmcd CD database file
#
# Track frame offsets:
#	150
#	21793
#	35557
#	54548
#	76090
#	102272
#	120845
#	137171
#	151218
#	168818
#	185747
#	203375
#	220739
#	241107
#	261982
#	279909
#	302198
#	321454
#	331828
#	344783
#
# Disc length: 4761 seconds
#
# Revision: 8
# Processed by: cddbd v1.5.2PL0 Copyright (c) Steve Scherf et al.
# Submitted via: CDex 1.51
#
DISCID=14129714
DTITLE=Various Artist - Selecta MedleyTracks-1
DYEAR=1900
DGENRE=Blues
TTITLE0=Billy Jo Spears - Billy Jo Spears Medley
TTITLE1=Cast From Grease - Grease Rock 'n' Roll Medley
TTITLE2=Beach Boys The - The Beach Boys Medley
TTITLE3=Katy Perry - Katy Perry Medley
TTITLE4=T.Rex - T. Rex Medley
TTITLE5=Vera lynn - War Favourites Medley
TTITLE6=Irish Various - Irish Medley
TTITLE7=Sugababes Vs Girls Aloud - Walk This Way
TTITLE8=Girls Aloud - Sound Of The Underground
TTITLE9=Pussycat Dolls The - Don't Cha (no rapping)
TTITLE10=Commodores The - Sail On
TTITLE11=Commodores The - Still
TTITLE12=Commodores The - Nightshift
TTITLE13=Commodores The - Easy
TTITLE14=Boney M - Boney M Megamix (Duet)
TTITLE15=Boney M - Rasputin
TTITLE16=Boney M - Rivers Of Babylon
TTITLE17=Doris Day - Whatever Will Be Will Be (que sera sera)
TTITLE18=Doris Day - Move Over Darling
TTITLE19=Doris Day - Perhaps Perhaps Perhaps
EXTD=
EXTT0=
EXTT1=
EXTT2=
EXTT3=
EXTT4=
EXTT5=
EXTT6=
EXTT7=
EXTT8=
EXTT9=
EXTT10=
EXTT11=
EXTT12=
EXTT13=
EXTT14=
EXTT15=
EXTT16=
EXTT17=
EXTT18=
EXTT19=
PLAYORDER=
